<svg width="36" height="24" viewBox="0 0 258 184" fill="none" xmlns="http://www.w3.org/2000/svg">
<path d="M102.82 137.493L3.46188 136.519C2.37233 136.509 1.49181 135.628 1.48158 134.538L0.537725 34.0177C0.52222 32.3664 2.40144 31.4088 3.72829 32.3919L91.7478 97.6085C93.3329 98.7829 95.481 97.1962 94.8244 95.3359L88.2927 76.8293C88.1062 76.3009 88.15 75.7184 88.4133 75.2237L127.224 2.33576C127.979 0.918346 130.012 0.923506 130.759 2.34473L169.132 75.3011C169.369 75.7502 169.425 76.2722 169.291 76.7615L164.058 95.8246C163.552 97.6667 165.67 99.1015 167.193 97.9489L253.793 32.4263C255.111 31.4295 257 32.3692 257 34.0212V134.519C257 135.616 256.116 136.509 255.02 136.519L155.18 137.493C154.739 137.498 154.312 137.648 153.965 137.92L130.234 156.532C129.51 157.1 128.49 157.1 127.766 156.532L104.035 137.92C103.688 137.647 103.261 137.498 102.82 137.493Z" fill="#1FA2B0"/>
<path d="M0.5 183.5V145H100.5L129 166L158 145H257V183.5H0.5Z" fill="#1FA2B0"/>
<path d="M102.82 137.493L3.46188 136.519C2.37233 136.509 1.49181 135.628 1.48158 134.538L0.537725 34.0177C0.52222 32.3664 2.40144 31.4088 3.72829 32.3919L91.7478 97.6085C93.3329 98.7829 95.481 97.1962 94.8244 95.3359L88.2927 76.8293C88.1062 76.3009 88.15 75.7184 88.4133 75.2237L127.224 2.33576C127.979 0.918346 130.012 0.923506 130.759 2.34473L169.132 75.3011C169.369 75.7502 169.425 76.2722 169.291 76.7615L164.058 95.8246C163.552 97.6667 165.67 99.1015 167.193 97.9489L253.793 32.4263C255.111 31.4295 257 32.3692 257 34.0212V134.519C257 135.616 256.116 136.509 255.02 136.519L155.18 137.493C154.739 137.498 154.312 137.648 153.965 137.92L130.234 156.532C129.51 157.1 128.49 157.1 127.766 156.532L104.035 137.92C103.688 137.647 103.261 137.498 102.82 137.493Z" stroke="black" stroke-opacity="0.2"/>
<path d="M0.5 183.5V145H100.5L129 166L158 145H257V183.5H0.5Z" stroke="black" stroke-opacity="0.2"/>
</svg>
