<?xml version="1.0" encoding="UTF-8"?>
<svg id="Camada_2" data-name="Camada 2" xmlns="http://www.w3.org/2000/svg" viewBox="0 0 2190.66 118.52">
  <defs>
    <style>
      .cls-1 {
        fill: #f6fcd6;
      }

      .cls-1, .cls-2, .cls-3 {
        stroke-width: 0px;
      }

      .cls-2 {
        fill: #02a2b1;
      }

      .cls-3 {
        fill: #28222c;
      }
    </style>
  </defs>
  <g id="Camada_1-2" data-name="Camada 1">
    <rect class="cls-2" width="2190.66" height="118.52"/>
    <g>
      <path class="cls-3" d="M93.86,44.12v28.53h-12.43v-28.53h12.43Z"/>
      <path class="cls-3" d="M96.13,44.12h13.03l3.08,4.57c.34.56,2.18,4.02,3.67,6.92l.34-.09c-.68-3.33-1.67-7.86-1.67-8.29v-3.12h12.47v28.53h-12.81l-3.2-4.83c-.26-.43-1.54-2.65-2.95-5l-.34.09c.3,1.67.81,5.04.81,5.68v4.06h-12.43v-28.53Z"/>
      <path class="cls-3" d="M153.98,55.31h-6.41v17.34h-12.77v-17.34h-6.36v-11.19h25.54v11.19Z"/>
      <path class="cls-3" d="M178.49,63.86v8.8h-23.11v-28.53h23.06v8.8h-10.64v2.05h9.23v6.75h-9.23v2.14h10.68Z"/>
      <path class="cls-3" d="M206.49,57.54v15.12h-8.29l-1.67-2.9h-.26c-1.07,2.39-2.82,3.29-5.77,3.29-6.83,0-10.64-4.74-10.64-14.01,0-11.06,4.95-15.29,17.73-15.29,3.5,0,6.88.26,8.46.51l.09,10.34-.17.13c-1.62-.09-3.76-.13-6.07-.13-2.69,0-4.61.13-5.77.64-1.11.51-1.49,1.58-1.49,3.12v1.2c0,1.45.21,2.52,1.03,2.95.47.26,1.37.38,2.35.38h.21v-5.34h10.25Z"/>
      <path class="cls-3" d="M237.53,72.36l-.21.3h-13.07l-2.48-6.62h-.73v6.62h-12.43v-28.53h15.21c9.23,0,13.28,3.12,13.28,10.76,0,3.76-1.11,6.58-3.2,8.46l3.63,9.01ZM221.05,58.69h1.96c1.32,0,1.67-.81,1.67-1.79v-1.41c0-1.2-.51-1.62-1.71-1.62h-1.92v4.83Z"/>
      <path class="cls-3" d="M272.08,72.36l-.21.3h-12.69l-.77-3.84h-6.79l-.77,3.84h-12.69l-.21-.3,8.33-28.23h17.47l8.33,28.23ZM254.7,53.95c-.43,2.14-.94,4.78-1.49,7.26h3.59c-.51-2.48-1.03-5.13-1.45-7.26h-.64Z"/>
      <path class="cls-3" d="M287.53,73l-.43,1.2h.43c2.95,0,4.36,1.24,4.36,3.59,0,3.29-1.92,4.95-8.16,4.95-2.01,0-3.89-.13-4.91-.26v-4.27c.77.04,2.86.13,4.14.13,1.15,0,1.41-.26,1.41-.64,0-.3-.17-.47-.77-.47h-2.73l1.75-4.31c-8.41-.9-11.7-5.55-11.7-14.78,0-10.08,5-14.39,15.97-14.39,3.2,0,6.07.47,7.6.81v10.17l-.17.17c-1.49-.17-3.2-.3-4.7-.3s-3.37.17-4.23.6c-.94.47-1.28,1.49-1.28,2.65v1.24c0,1.28.34,2.26,1.41,2.65.94.38,2.69.47,4.1.47s3.63-.21,4.87-.38l.17.17v10.21c-1.45.3-3.84.73-7.13.81Z"/>
      <path class="cls-3" d="M329.74,72.36l-.21.3h-12.69l-.77-3.84h-6.79l-.77,3.84h-12.69l-.21-.3,8.33-28.23h17.47l8.33,28.23ZM308.98,41.99h-6.02l.38-3.72c.38-3.67,1.84-5.6,5.17-5.6,2.18,0,3.25.6,4.14,1.28l1.28.9c.51.38.77.6,1.37.6.47,0,.6-.26.73-1.03l.3-1.75h6.07l-.43,3.72c-.38,3.72-1.84,5.6-5.13,5.6-2.18,0-3.2-.51-4.19-1.28l-1.24-.9c-.47-.3-.77-.6-1.37-.6-.56,0-.68.3-.81,1.07l-.26,1.71ZM312.35,53.95c-.43,2.14-.94,4.78-1.49,7.26h3.59c-.51-2.48-1.03-5.13-1.45-7.26h-.64Z"/>
      <path class="cls-3" d="M343.76,43.65c8.8,0,15.25,4.44,15.25,14.82,0,9.52-5.34,14.65-15.25,14.65s-15.21-5.25-15.21-14.65c0-10.38,6.45-14.82,15.21-14.82ZM343.76,62.28c1.88,0,2.82-.9,2.82-2.35v-3.08c0-1.49-.9-2.35-2.82-2.35s-2.78.9-2.78,2.35v3.08c0,1.45.94,2.35,2.78,2.35Z"/>
      <path class="cls-1" d="M370.58,44.12h13.2c11.4,0,15.12,4.74,15.12,14.1s-3.29,14.44-15.16,14.44h-13.16v-28.53ZM384.25,62.49c.64,0,1.32-.04,1.75-.47.34-.34.47-1.03.47-1.79v-3.8c0-.81-.13-1.45-.47-1.75-.38-.34-.85-.38-1.41-.38h-1.58v8.2h1.24Z"/>
      <path class="cls-1" d="M431.81,72.36l-.21.3h-12.69l-.77-3.84h-6.79l-.77,3.84h-12.69l-.21-.3,8.33-28.23h17.47l8.33,28.23ZM414.42,53.95c-.43,2.14-.94,4.78-1.49,7.26h3.59c-.51-2.48-1.03-5.13-1.45-7.26h-.64Z"/>
      <path class="cls-1" d="M425.98,44.12h13.03l1.45,4.23c.26.6.98,4.95,1.24,6.54h.26c.26-1.58,1.03-5.94,1.24-6.54l1.49-4.23h12.98l.21.3-9.65,19.22v9.01h-12.77v-9.01l-9.7-19.22.21-.3Z"/>
      <path class="cls-1" d="M481.52,55.91v6.92h-11.96v-6.92h11.96Z"/>
      <path class="cls-3" d="M506.87,44.12v28.53h-12.43v-28.53h12.43Z"/>
      <path class="cls-3" d="M509.16,44.12h13.03l3.08,4.57c.34.56,2.18,4.02,3.67,6.92l.34-.09c-.68-3.33-1.67-7.86-1.67-8.29v-3.12h12.47v28.53h-12.81l-3.2-4.83c-.26-.43-1.54-2.65-2.95-5l-.34.09c.3,1.67.81,5.04.81,5.68v4.06h-12.43v-28.53Z"/>
      <path class="cls-3" d="M566.99,55.31h-6.41v17.34h-12.77v-17.34h-6.36v-11.19h25.54v11.19Z"/>
      <path class="cls-3" d="M591.53,63.86v8.8h-23.11v-28.53h23.06v8.8h-10.64v2.05h9.23v6.75h-9.23v2.14h10.68Z"/>
      <path class="cls-3" d="M619.48,57.54v15.12h-8.29l-1.67-2.9h-.26c-1.07,2.39-2.82,3.29-5.77,3.29-6.83,0-10.64-4.74-10.64-14.01,0-11.06,4.95-15.29,17.73-15.29,3.5,0,6.88.26,8.46.51l.09,10.34-.17.13c-1.62-.09-3.76-.13-6.07-.13-2.69,0-4.61.13-5.77.64-1.11.51-1.49,1.58-1.49,3.12v1.2c0,1.45.21,2.52,1.03,2.95.47.26,1.37.38,2.35.38h.21v-5.34h10.25Z"/>
      <path class="cls-3" d="M650.56,72.36l-.21.3h-13.07l-2.48-6.62h-.73v6.62h-12.43v-28.53h15.21c9.23,0,13.28,3.12,13.28,10.76,0,3.76-1.11,6.58-3.2,8.46l3.63,9.01ZM634.07,58.69h1.96c1.32,0,1.67-.81,1.67-1.79v-1.41c0-1.2-.51-1.62-1.71-1.62h-1.92v4.83Z"/>
      <path class="cls-3" d="M685.1,72.36l-.21.3h-12.69l-.77-3.84h-6.79l-.77,3.84h-12.69l-.21-.3,8.33-28.23h17.47l8.33,28.23ZM667.71,53.95c-.43,2.14-.94,4.78-1.49,7.26h3.59c-.51-2.48-1.03-5.13-1.45-7.26h-.64Z"/>
      <path class="cls-3" d="M700.51,73l-.43,1.2h.43c2.95,0,4.36,1.24,4.36,3.59,0,3.29-1.92,4.95-8.16,4.95-2.01,0-3.89-.13-4.91-.26v-4.27c.77.04,2.86.13,4.14.13,1.15,0,1.41-.26,1.41-.64,0-.3-.17-.47-.77-.47h-2.73l1.75-4.31c-8.41-.9-11.7-5.55-11.7-14.78,0-10.08,5-14.39,15.97-14.39,3.2,0,6.07.47,7.6.81v10.17l-.17.17c-1.49-.17-3.2-.3-4.7-.3s-3.37.17-4.23.6c-.94.47-1.28,1.49-1.28,2.65v1.24c0,1.28.34,2.26,1.41,2.65.94.38,2.69.47,4.1.47s3.63-.21,4.87-.38l.17.17v10.21c-1.45.3-3.84.73-7.13.81Z"/>
      <path class="cls-3" d="M742.72,72.36l-.21.3h-12.69l-.77-3.84h-6.79l-.77,3.84h-12.69l-.21-.3,8.33-28.23h17.47l8.33,28.23ZM721.97,41.99h-6.02l.38-3.72c.38-3.67,1.84-5.6,5.17-5.6,2.18,0,3.25.6,4.14,1.28l1.28.9c.51.38.77.6,1.37.6.47,0,.6-.26.73-1.03l.3-1.75h6.07l-.43,3.72c-.38,3.72-1.84,5.6-5.13,5.6-2.18,0-3.2-.51-4.19-1.28l-1.24-.9c-.47-.3-.77-.6-1.37-.6-.56,0-.68.3-.81,1.07l-.26,1.71ZM725.34,53.95c-.43,2.14-.94,4.78-1.49,7.26h3.59c-.51-2.48-1.03-5.13-1.45-7.26h-.64Z"/>
      <path class="cls-3" d="M756.75,43.65c8.8,0,15.25,4.44,15.25,14.82,0,9.52-5.34,14.65-15.25,14.65s-15.21-5.25-15.21-14.65c0-10.38,6.45-14.82,15.21-14.82ZM756.75,62.28c1.88,0,2.82-.9,2.82-2.35v-3.08c0-1.49-.9-2.35-2.82-2.35s-2.78.9-2.78,2.35v3.08c0,1.45.94,2.35,2.78,2.35Z"/>
      <path class="cls-1" d="M783.55,44.12h13.2c11.4,0,15.12,4.74,15.12,14.1s-3.29,14.44-15.16,14.44h-13.16v-28.53ZM797.22,62.49c.64,0,1.32-.04,1.75-.47.34-.34.47-1.03.47-1.79v-3.8c0-.81-.13-1.45-.47-1.75-.38-.34-.85-.38-1.41-.38h-1.58v8.2h1.24Z"/>
      <path class="cls-1" d="M844.84,72.36l-.21.3h-12.69l-.77-3.84h-6.79l-.77,3.84h-12.69l-.21-.3,8.33-28.23h17.47l8.33,28.23ZM827.45,53.95c-.43,2.14-.94,4.78-1.49,7.26h3.59c-.51-2.48-1.03-5.13-1.45-7.26h-.64Z"/>
      <path class="cls-1" d="M838.96,44.12h13.03l1.45,4.23c.26.6.98,4.95,1.24,6.54h.26c.26-1.58,1.03-5.94,1.24-6.54l1.49-4.23h12.98l.21.3-9.65,19.22v9.01h-12.77v-9.01l-9.7-19.22.21-.3Z"/>
      <path class="cls-1" d="M894.52,55.91v6.92h-11.96v-6.92h11.96Z"/>
      <path class="cls-3" d="M919.86,44.12v28.53h-12.43v-28.53h12.43Z"/>
      <path class="cls-3" d="M922.15,44.12h13.03l3.08,4.57c.34.56,2.18,4.02,3.67,6.92l.34-.09c-.68-3.33-1.67-7.86-1.67-8.29v-3.12h12.47v28.53h-12.81l-3.2-4.83c-.26-.43-1.54-2.65-2.95-5l-.34.09c.3,1.67.81,5.04.81,5.68v4.06h-12.43v-28.53Z"/>
      <path class="cls-3" d="M979.98,55.31h-6.41v17.34h-12.77v-17.34h-6.36v-11.19h25.54v11.19Z"/>
      <path class="cls-3" d="M1004.52,63.86v8.8h-23.11v-28.53h23.06v8.8h-10.64v2.05h9.23v6.75h-9.23v2.14h10.68Z"/>
      <path class="cls-3" d="M1032.49,57.54v15.12h-8.29l-1.67-2.9h-.26c-1.07,2.39-2.82,3.29-5.77,3.29-6.83,0-10.64-4.74-10.64-14.01,0-11.06,4.95-15.29,17.73-15.29,3.5,0,6.88.26,8.46.51l.09,10.34-.17.13c-1.62-.09-3.76-.13-6.07-.13-2.69,0-4.61.13-5.77.64-1.11.51-1.49,1.58-1.49,3.12v1.2c0,1.45.21,2.52,1.03,2.95.47.26,1.37.38,2.35.38h.21v-5.34h10.25Z"/>
      <path class="cls-3" d="M1063.55,72.36l-.21.3h-13.07l-2.48-6.62h-.73v6.62h-12.43v-28.53h15.21c9.23,0,13.28,3.12,13.28,10.76,0,3.76-1.11,6.58-3.2,8.46l3.63,9.01ZM1047.06,58.69h1.96c1.32,0,1.67-.81,1.67-1.79v-1.41c0-1.2-.51-1.62-1.71-1.62h-1.92v4.83Z"/>
      <path class="cls-3" d="M1098.12,72.36l-.21.3h-12.69l-.77-3.84h-6.79l-.77,3.84h-12.69l-.21-.3,8.33-28.23h17.47l8.33,28.23ZM1080.73,53.95c-.43,2.14-.94,4.78-1.49,7.26h3.59c-.51-2.48-1.03-5.13-1.45-7.26h-.64Z"/>
      <path class="cls-3" d="M1113.52,73l-.43,1.2h.43c2.95,0,4.36,1.24,4.36,3.59,0,3.29-1.92,4.95-8.16,4.95-2.01,0-3.89-.13-4.91-.26v-4.27c.77.04,2.86.13,4.14.13,1.15,0,1.41-.26,1.41-.64,0-.3-.17-.47-.77-.47h-2.73l1.75-4.31c-8.41-.9-11.7-5.55-11.7-14.78,0-10.08,5-14.39,15.97-14.39,3.2,0,6.07.47,7.6.81v10.17l-.17.17c-1.49-.17-3.2-.3-4.7-.3s-3.37.17-4.23.6c-.94.47-1.28,1.49-1.28,2.65v1.24c0,1.28.34,2.26,1.41,2.65.94.38,2.69.47,4.1.47s3.63-.21,4.87-.38l.17.17v10.21c-1.45.3-3.84.73-7.13.81Z"/>
      <path class="cls-3" d="M1155.73,72.36l-.21.3h-12.69l-.77-3.84h-6.79l-.77,3.84h-12.69l-.21-.3,8.33-28.23h17.47l8.33,28.23ZM1134.98,41.99h-6.02l.38-3.72c.38-3.67,1.84-5.6,5.17-5.6,2.18,0,3.25.6,4.14,1.28l1.28.9c.51.38.77.6,1.37.6.47,0,.6-.26.73-1.03l.3-1.75h6.07l-.43,3.72c-.38,3.72-1.84,5.6-5.13,5.6-2.18,0-3.2-.51-4.19-1.28l-1.24-.9c-.47-.3-.77-.6-1.37-.6-.56,0-.68.3-.81,1.07l-.26,1.71ZM1138.35,53.95c-.43,2.14-.94,4.78-1.49,7.26h3.59c-.51-2.48-1.03-5.13-1.45-7.26h-.64Z"/>
      <path class="cls-3" d="M1169.73,43.65c8.8,0,15.25,4.44,15.25,14.82,0,9.52-5.34,14.65-15.25,14.65s-15.21-5.25-15.21-14.65c0-10.38,6.45-14.82,15.21-14.82ZM1169.73,62.28c1.88,0,2.82-.9,2.82-2.35v-3.08c0-1.49-.9-2.35-2.82-2.35s-2.78.9-2.78,2.35v3.08c0,1.45.94,2.35,2.78,2.35Z"/>
      <path class="cls-1" d="M1196.59,44.12h13.2c11.4,0,15.12,4.74,15.12,14.1s-3.29,14.44-15.16,14.44h-13.16v-28.53ZM1210.26,62.49c.64,0,1.32-.04,1.75-.47.34-.34.47-1.03.47-1.79v-3.8c0-.81-.13-1.45-.47-1.75-.38-.34-.85-.38-1.41-.38h-1.58v8.2h1.24Z"/>
      <path class="cls-1" d="M1257.82,72.36l-.21.3h-12.69l-.77-3.84h-6.79l-.77,3.84h-12.69l-.21-.3,8.33-28.23h17.47l8.33,28.23ZM1240.44,53.95c-.43,2.14-.94,4.78-1.49,7.26h3.59c-.51-2.48-1.03-5.13-1.45-7.26h-.64Z"/>
      <path class="cls-1" d="M1251.96,44.12h13.03l1.45,4.23c.26.6.98,4.95,1.24,6.54h.26c.26-1.58,1.03-5.94,1.24-6.54l1.49-4.23h12.98l.21.3-9.65,19.22v9.01h-12.77v-9.01l-9.7-19.22.21-.3Z"/>
      <path class="cls-1" d="M1307.55,55.91v6.92h-11.96v-6.92h11.96Z"/>
      <path class="cls-3" d="M1332.87,44.12v28.53h-12.43v-28.53h12.43Z"/>
      <path class="cls-3" d="M1335.11,44.12h13.03l3.08,4.57c.34.56,2.18,4.02,3.67,6.92l.34-.09c-.68-3.33-1.67-7.86-1.67-8.29v-3.12h12.47v28.53h-12.81l-3.2-4.83c-.26-.43-1.54-2.65-2.95-5l-.34.09c.3,1.67.81,5.04.81,5.68v4.06h-12.43v-28.53Z"/>
      <path class="cls-3" d="M1393.02,55.31h-6.41v17.34h-12.77v-17.34h-6.36v-11.19h25.54v11.19Z"/>
      <path class="cls-3" d="M1417.52,63.86v8.8h-23.11v-28.53h23.06v8.8h-10.64v2.05h9.23v6.75h-9.23v2.14h10.68Z"/>
      <path class="cls-3" d="M1445.5,57.54v15.12h-8.29l-1.67-2.9h-.26c-1.07,2.39-2.82,3.29-5.77,3.29-6.83,0-10.64-4.74-10.64-14.01,0-11.06,4.95-15.29,17.73-15.29,3.5,0,6.88.26,8.46.51l.09,10.34-.17.13c-1.62-.09-3.76-.13-6.07-.13-2.69,0-4.61.13-5.77.64-1.11.51-1.49,1.58-1.49,3.12v1.2c0,1.45.21,2.52,1.03,2.95.47.26,1.37.38,2.35.38h.21v-5.34h10.25Z"/>
      <path class="cls-3" d="M1476.58,72.36l-.21.3h-13.07l-2.48-6.62h-.73v6.62h-12.43v-28.53h15.21c9.23,0,13.28,3.12,13.28,10.76,0,3.76-1.11,6.58-3.2,8.46l3.63,9.01ZM1460.09,58.69h1.96c1.32,0,1.67-.81,1.67-1.79v-1.41c0-1.2-.51-1.62-1.71-1.62h-1.92v4.83Z"/>
      <path class="cls-3" d="M1511.13,72.36l-.21.3h-12.69l-.77-3.84h-6.79l-.77,3.84h-12.69l-.21-.3,8.33-28.23h17.47l8.33,28.23ZM1493.75,53.95c-.43,2.14-.94,4.78-1.49,7.26h3.59c-.51-2.48-1.03-5.13-1.45-7.26h-.64Z"/>
      <path class="cls-3" d="M1526.56,73l-.43,1.2h.43c2.95,0,4.36,1.24,4.36,3.59,0,3.29-1.92,4.95-8.16,4.95-2.01,0-3.89-.13-4.91-.26v-4.27c.77.04,2.86.13,4.14.13,1.15,0,1.41-.26,1.41-.64,0-.3-.17-.47-.77-.47h-2.73l1.75-4.31c-8.41-.9-11.7-5.55-11.7-14.78,0-10.08,5-14.39,15.97-14.39,3.2,0,6.07.47,7.6.81v10.17l-.17.17c-1.49-.17-3.2-.3-4.7-.3s-3.37.17-4.23.6c-.94.47-1.28,1.49-1.28,2.65v1.24c0,1.28.34,2.26,1.41,2.65.94.38,2.69.47,4.1.47s3.63-.21,4.87-.38l.17.17v10.21c-1.45.3-3.84.73-7.13.81Z"/>
      <path class="cls-3" d="M1568.74,72.36l-.21.3h-12.69l-.77-3.84h-6.79l-.77,3.84h-12.69l-.21-.3,8.33-28.23h17.47l8.33,28.23ZM1547.98,41.99h-6.02l.38-3.72c.38-3.67,1.84-5.6,5.17-5.6,2.18,0,3.25.6,4.14,1.28l1.28.9c.51.38.77.6,1.37.6.47,0,.6-.26.73-1.03l.3-1.75h6.07l-.43,3.72c-.38,3.72-1.84,5.6-5.13,5.6-2.18,0-3.2-.51-4.19-1.28l-1.24-.9c-.47-.3-.77-.6-1.37-.6-.56,0-.68.3-.81,1.07l-.26,1.71ZM1551.35,53.95c-.43,2.14-.94,4.78-1.49,7.26h3.59c-.51-2.48-1.03-5.13-1.45-7.26h-.64Z"/>
      <path class="cls-3" d="M1582.74,43.65c8.8,0,15.25,4.44,15.25,14.82,0,9.52-5.34,14.65-15.25,14.65s-15.21-5.25-15.21-14.65c0-10.38,6.45-14.82,15.21-14.82ZM1582.74,62.28c1.88,0,2.82-.9,2.82-2.35v-3.08c0-1.49-.9-2.35-2.82-2.35s-2.78.9-2.78,2.35v3.08c0,1.45.94,2.35,2.78,2.35Z"/>
      <path class="cls-1" d="M1609.58,44.12h13.2c11.4,0,15.12,4.74,15.12,14.1s-3.29,14.44-15.16,14.44h-13.16v-28.53ZM1623.25,62.49c.64,0,1.32-.04,1.75-.47.34-.34.47-1.03.47-1.79v-3.8c0-.81-.13-1.45-.47-1.75-.38-.34-.85-.38-1.41-.38h-1.58v8.2h1.24Z"/>
      <path class="cls-1" d="M1670.83,72.36l-.21.3h-12.69l-.77-3.84h-6.79l-.77,3.84h-12.69l-.21-.3,8.33-28.23h17.47l8.33,28.23ZM1653.44,53.95c-.43,2.14-.94,4.78-1.49,7.26h3.59c-.51-2.48-1.03-5.13-1.45-7.26h-.64Z"/>
      <path class="cls-1" d="M1664.99,44.12h13.03l1.45,4.23c.26.6.98,4.95,1.24,6.54h.26c.26-1.58,1.03-5.94,1.24-6.54l1.49-4.23h12.98l.21.3-9.65,19.22v9.01h-12.77v-9.01l-9.7-19.22.21-.3Z"/>
      <path class="cls-1" d="M1720.57,55.91v6.92h-11.96v-6.92h11.96Z"/>
      <path class="cls-3" d="M1745.88,44.12v28.53h-12.43v-28.53h12.43Z"/>
      <path class="cls-3" d="M1748.13,44.12h13.03l3.08,4.57c.34.56,2.18,4.02,3.67,6.92l.34-.09c-.68-3.33-1.67-7.86-1.67-8.29v-3.12h12.47v28.53h-12.81l-3.2-4.83c-.26-.43-1.54-2.65-2.95-5l-.34.09c.3,1.67.81,5.04.81,5.68v4.06h-12.43v-28.53Z"/>
      <path class="cls-3" d="M1806.03,55.31h-6.41v17.34h-12.77v-17.34h-6.36v-11.19h25.54v11.19Z"/>
      <path class="cls-3" d="M1830.56,63.86v8.8h-23.11v-28.53h23.06v8.8h-10.64v2.05h9.23v6.75h-9.23v2.14h10.68Z"/>
      <path class="cls-3" d="M1858.52,57.54v15.12h-8.29l-1.67-2.9h-.26c-1.07,2.39-2.82,3.29-5.77,3.29-6.83,0-10.64-4.74-10.64-14.01,0-11.06,4.95-15.29,17.73-15.29,3.5,0,6.88.26,8.46.51l.09,10.34-.17.13c-1.62-.09-3.76-.13-6.07-.13-2.69,0-4.61.13-5.77.64-1.11.51-1.49,1.58-1.49,3.12v1.2c0,1.45.21,2.52,1.03,2.95.47.26,1.37.38,2.35.38h.21v-5.34h10.25Z"/>
      <path class="cls-3" d="M1889.55,72.36l-.21.3h-13.07l-2.48-6.62h-.73v6.62h-12.43v-28.53h15.21c9.23,0,13.28,3.12,13.28,10.76,0,3.76-1.11,6.58-3.2,8.46l3.63,9.01ZM1873.07,58.69h1.96c1.32,0,1.67-.81,1.67-1.79v-1.41c0-1.2-.51-1.62-1.71-1.62h-1.92v4.83Z"/>
      <path class="cls-3" d="M1924.13,72.36l-.21.3h-12.69l-.77-3.84h-6.79l-.77,3.84h-12.69l-.21-.3,8.33-28.23h17.47l8.33,28.23ZM1906.75,53.95c-.43,2.14-.94,4.78-1.49,7.26h3.59c-.51-2.48-1.03-5.13-1.45-7.26h-.64Z"/>
      <path class="cls-3" d="M1939.57,73l-.43,1.2h.43c2.95,0,4.36,1.24,4.36,3.59,0,3.29-1.92,4.95-8.16,4.95-2.01,0-3.89-.13-4.91-.26v-4.27c.77.04,2.86.13,4.14.13,1.15,0,1.41-.26,1.41-.64,0-.3-.17-.47-.77-.47h-2.73l1.75-4.31c-8.41-.9-11.7-5.55-11.7-14.78,0-10.08,5-14.39,15.97-14.39,3.2,0,6.07.47,7.6.81v10.17l-.17.17c-1.49-.17-3.2-.3-4.7-.3s-3.37.17-4.23.6c-.94.47-1.28,1.49-1.28,2.65v1.24c0,1.28.34,2.26,1.41,2.65.94.38,2.69.47,4.1.47s3.63-.21,4.87-.38l.17.17v10.21c-1.45.3-3.84.73-7.13.81Z"/>
      <path class="cls-3" d="M1981.77,72.36l-.21.3h-12.69l-.77-3.84h-6.79l-.77,3.84h-12.69l-.21-.3,8.33-28.23h17.47l8.33,28.23ZM1961.01,41.99h-6.02l.38-3.72c.38-3.67,1.84-5.6,5.17-5.6,2.18,0,3.25.6,4.14,1.28l1.28.9c.51.38.77.6,1.37.6.47,0,.6-.26.73-1.03l.3-1.75h6.07l-.43,3.72c-.38,3.72-1.84,5.6-5.13,5.6-2.18,0-3.2-.51-4.19-1.28l-1.24-.9c-.47-.3-.77-.6-1.37-.6-.56,0-.68.3-.81,1.07l-.26,1.71ZM1964.39,53.95c-.43,2.14-.94,4.78-1.49,7.26h3.59c-.51-2.48-1.03-5.13-1.45-7.26h-.64Z"/>
      <path class="cls-3" d="M1995.76,43.65c8.8,0,15.25,4.44,15.25,14.82,0,9.52-5.34,14.65-15.25,14.65s-15.21-5.25-15.21-14.65c0-10.38,6.45-14.82,15.21-14.82ZM1995.76,62.28c1.88,0,2.82-.9,2.82-2.35v-3.08c0-1.49-.9-2.35-2.82-2.35s-2.78.9-2.78,2.35v3.08c0,1.45.94,2.35,2.78,2.35Z"/>
      <path class="cls-1" d="M2022.59,44.12h13.2c11.4,0,15.12,4.74,15.12,14.1s-3.29,14.44-15.16,14.44h-13.16v-28.53ZM2036.26,62.49c.64,0,1.32-.04,1.75-.47.34-.34.47-1.03.47-1.79v-3.8c0-.81-.13-1.45-.47-1.75-.38-.34-.85-.38-1.41-.38h-1.58v8.2h1.24Z"/>
      <path class="cls-1" d="M2083.84,72.36l-.21.3h-12.69l-.77-3.84h-6.79l-.77,3.84h-12.69l-.21-.3,8.33-28.23h17.47l8.33,28.23ZM2066.46,53.95c-.43,2.14-.94,4.78-1.49,7.26h3.59c-.51-2.48-1.03-5.13-1.45-7.26h-.64Z"/>
      <path class="cls-1" d="M2078,44.12h13.03l1.45,4.23c.26.6.98,4.95,1.24,6.54h.26c.26-1.58,1.03-5.94,1.24-6.54l1.49-4.23h12.98l.21.3-9.65,19.22v9.01h-12.77v-9.01l-9.7-19.22.21-.3Z"/>
    </g>
    <rect class="cls-2" width="2190.66" height="118.52"/>
    <g>
      <path class="cls-3" d="M93.86,44.12v28.53h-12.43v-28.53h12.43Z"/>
      <path class="cls-3" d="M96.13,44.12h13.03l3.08,4.57c.34.56,2.18,4.02,3.67,6.92l.34-.09c-.68-3.33-1.67-7.86-1.67-8.29v-3.12h12.47v28.53h-12.81l-3.2-4.83c-.26-.43-1.54-2.65-2.95-5l-.34.09c.3,1.67.81,5.04.81,5.68v4.06h-12.43v-28.53Z"/>
      <path class="cls-3" d="M153.98,55.31h-6.41v17.34h-12.77v-17.34h-6.36v-11.19h25.54v11.19Z"/>
      <path class="cls-3" d="M178.49,63.86v8.8h-23.11v-28.53h23.06v8.8h-10.64v2.05h9.23v6.75h-9.23v2.14h10.68Z"/>
      <path class="cls-3" d="M206.49,57.54v15.12h-8.29l-1.67-2.9h-.26c-1.07,2.39-2.82,3.29-5.77,3.29-6.83,0-10.64-4.74-10.64-14.01,0-11.06,4.95-15.29,17.73-15.29,3.5,0,6.88.26,8.46.51l.09,10.34-.17.13c-1.62-.09-3.76-.13-6.07-.13-2.69,0-4.61.13-5.77.64-1.11.51-1.49,1.58-1.49,3.12v1.2c0,1.45.21,2.52,1.03,2.95.47.26,1.37.38,2.35.38h.21v-5.34h10.25Z"/>
      <path class="cls-3" d="M237.53,72.36l-.21.3h-13.07l-2.48-6.62h-.73v6.62h-12.43v-28.53h15.21c9.23,0,13.28,3.12,13.28,10.76,0,3.76-1.11,6.58-3.2,8.46l3.63,9.01ZM221.05,58.69h1.96c1.32,0,1.67-.81,1.67-1.79v-1.41c0-1.2-.51-1.62-1.71-1.62h-1.92v4.83Z"/>
      <path class="cls-3" d="M272.08,72.36l-.21.3h-12.69l-.77-3.84h-6.79l-.77,3.84h-12.69l-.21-.3,8.33-28.23h17.47l8.33,28.23ZM254.7,53.95c-.43,2.14-.94,4.78-1.49,7.26h3.59c-.51-2.48-1.03-5.13-1.45-7.26h-.64Z"/>
      <path class="cls-3" d="M287.53,73l-.43,1.2h.43c2.95,0,4.36,1.24,4.36,3.59,0,3.29-1.92,4.95-8.16,4.95-2.01,0-3.89-.13-4.91-.26v-4.27c.77.04,2.86.13,4.14.13,1.15,0,1.41-.26,1.41-.64,0-.3-.17-.47-.77-.47h-2.73l1.75-4.31c-8.41-.9-11.7-5.55-11.7-14.78,0-10.08,5-14.39,15.97-14.39,3.2,0,6.07.47,7.6.81v10.17l-.17.17c-1.49-.17-3.2-.3-4.7-.3s-3.37.17-4.23.6c-.94.47-1.28,1.49-1.28,2.65v1.24c0,1.28.34,2.26,1.41,2.65.94.38,2.69.47,4.1.47s3.63-.21,4.87-.38l.17.17v10.21c-1.45.3-3.84.73-7.13.81Z"/>
      <path class="cls-3" d="M329.74,72.36l-.21.3h-12.69l-.77-3.84h-6.79l-.77,3.84h-12.69l-.21-.3,8.33-28.23h17.47l8.33,28.23ZM308.98,41.99h-6.02l.38-3.72c.38-3.67,1.84-5.6,5.17-5.6,2.18,0,3.25.6,4.14,1.28l1.28.9c.51.38.77.6,1.37.6.47,0,.6-.26.73-1.03l.3-1.75h6.07l-.43,3.72c-.38,3.72-1.84,5.6-5.13,5.6-2.18,0-3.2-.51-4.19-1.28l-1.24-.9c-.47-.3-.77-.6-1.37-.6-.56,0-.68.3-.81,1.07l-.26,1.71ZM312.35,53.95c-.43,2.14-.94,4.78-1.49,7.26h3.59c-.51-2.48-1.03-5.13-1.45-7.26h-.64Z"/>
      <path class="cls-3" d="M343.76,43.65c8.8,0,15.25,4.44,15.25,14.82,0,9.52-5.34,14.65-15.25,14.65s-15.21-5.25-15.21-14.65c0-10.38,6.45-14.82,15.21-14.82ZM343.76,62.28c1.88,0,2.82-.9,2.82-2.35v-3.08c0-1.49-.9-2.35-2.82-2.35s-2.78.9-2.78,2.35v3.08c0,1.45.94,2.35,2.78,2.35Z"/>
      <path class="cls-1" d="M370.58,44.12h13.2c11.4,0,15.12,4.74,15.12,14.1s-3.29,14.44-15.16,14.44h-13.16v-28.53ZM384.25,62.49c.64,0,1.32-.04,1.75-.47.34-.34.47-1.03.47-1.79v-3.8c0-.81-.13-1.45-.47-1.75-.38-.34-.85-.38-1.41-.38h-1.58v8.2h1.24Z"/>
      <path class="cls-1" d="M431.81,72.36l-.21.3h-12.69l-.77-3.84h-6.79l-.77,3.84h-12.69l-.21-.3,8.33-28.23h17.47l8.33,28.23ZM414.42,53.95c-.43,2.14-.94,4.78-1.49,7.26h3.59c-.51-2.48-1.03-5.13-1.45-7.26h-.64Z"/>
      <path class="cls-1" d="M425.98,44.12h13.03l1.45,4.23c.26.6.98,4.95,1.24,6.54h.26c.26-1.58,1.03-5.94,1.24-6.54l1.49-4.23h12.98l.21.3-9.65,19.22v9.01h-12.77v-9.01l-9.7-19.22.21-.3Z"/>
      <path class="cls-1" d="M481.52,55.91v6.92h-11.96v-6.92h11.96Z"/>
      <path class="cls-3" d="M506.87,44.12v28.53h-12.43v-28.53h12.43Z"/>
      <path class="cls-3" d="M509.16,44.12h13.03l3.08,4.57c.34.56,2.18,4.02,3.67,6.92l.34-.09c-.68-3.33-1.67-7.86-1.67-8.29v-3.12h12.47v28.53h-12.81l-3.2-4.83c-.26-.43-1.54-2.65-2.95-5l-.34.09c.3,1.67.81,5.04.81,5.68v4.06h-12.43v-28.53Z"/>
      <path class="cls-3" d="M566.99,55.31h-6.41v17.34h-12.77v-17.34h-6.36v-11.19h25.54v11.19Z"/>
      <path class="cls-3" d="M591.53,63.86v8.8h-23.11v-28.53h23.06v8.8h-10.64v2.05h9.23v6.75h-9.23v2.14h10.68Z"/>
      <path class="cls-3" d="M619.48,57.54v15.12h-8.29l-1.67-2.9h-.26c-1.07,2.39-2.82,3.29-5.77,3.29-6.83,0-10.64-4.74-10.64-14.01,0-11.06,4.95-15.29,17.73-15.29,3.5,0,6.88.26,8.46.51l.09,10.34-.17.13c-1.62-.09-3.76-.13-6.07-.13-2.69,0-4.61.13-5.77.64-1.11.51-1.49,1.58-1.49,3.12v1.2c0,1.45.21,2.52,1.03,2.95.47.26,1.37.38,2.35.38h.21v-5.34h10.25Z"/>
      <path class="cls-3" d="M650.56,72.36l-.21.3h-13.07l-2.48-6.62h-.73v6.62h-12.43v-28.53h15.21c9.23,0,13.28,3.12,13.28,10.76,0,3.76-1.11,6.58-3.2,8.46l3.63,9.01ZM634.07,58.69h1.96c1.32,0,1.67-.81,1.67-1.79v-1.41c0-1.2-.51-1.62-1.71-1.62h-1.92v4.83Z"/>
      <path class="cls-3" d="M685.1,72.36l-.21.3h-12.69l-.77-3.84h-6.79l-.77,3.84h-12.69l-.21-.3,8.33-28.23h17.47l8.33,28.23ZM667.71,53.95c-.43,2.14-.94,4.78-1.49,7.26h3.59c-.51-2.48-1.03-5.13-1.45-7.26h-.64Z"/>
      <path class="cls-3" d="M700.51,73l-.43,1.2h.43c2.95,0,4.36,1.24,4.36,3.59,0,3.29-1.92,4.95-8.16,4.95-2.01,0-3.89-.13-4.91-.26v-4.27c.77.04,2.86.13,4.14.13,1.15,0,1.41-.26,1.41-.64,0-.3-.17-.47-.77-.47h-2.73l1.75-4.31c-8.41-.9-11.7-5.55-11.7-14.78,0-10.08,5-14.39,15.97-14.39,3.2,0,6.07.47,7.6.81v10.17l-.17.17c-1.49-.17-3.2-.3-4.7-.3s-3.37.17-4.23.6c-.94.47-1.28,1.49-1.28,2.65v1.24c0,1.28.34,2.26,1.41,2.65.94.38,2.69.47,4.1.47s3.63-.21,4.87-.38l.17.17v10.21c-1.45.3-3.84.73-7.13.81Z"/>
      <path class="cls-3" d="M742.72,72.36l-.21.3h-12.69l-.77-3.84h-6.79l-.77,3.84h-12.69l-.21-.3,8.33-28.23h17.47l8.33,28.23ZM721.97,41.99h-6.02l.38-3.72c.38-3.67,1.84-5.6,5.17-5.6,2.18,0,3.25.6,4.14,1.28l1.28.9c.51.38.77.6,1.37.6.47,0,.6-.26.73-1.03l.3-1.75h6.07l-.43,3.72c-.38,3.72-1.84,5.6-5.13,5.6-2.18,0-3.2-.51-4.19-1.28l-1.24-.9c-.47-.3-.77-.6-1.37-.6-.56,0-.68.3-.81,1.07l-.26,1.71ZM725.34,53.95c-.43,2.14-.94,4.78-1.49,7.26h3.59c-.51-2.48-1.03-5.13-1.45-7.26h-.64Z"/>
      <path class="cls-3" d="M756.75,43.65c8.8,0,15.25,4.44,15.25,14.82,0,9.52-5.34,14.65-15.25,14.65s-15.21-5.25-15.21-14.65c0-10.38,6.45-14.82,15.21-14.82ZM756.75,62.28c1.88,0,2.82-.9,2.82-2.35v-3.08c0-1.49-.9-2.35-2.82-2.35s-2.78.9-2.78,2.35v3.08c0,1.45.94,2.35,2.78,2.35Z"/>
      <path class="cls-1" d="M783.55,44.12h13.2c11.4,0,15.12,4.74,15.12,14.1s-3.29,14.44-15.16,14.44h-13.16v-28.53ZM797.22,62.49c.64,0,1.32-.04,1.75-.47.34-.34.47-1.03.47-1.79v-3.8c0-.81-.13-1.45-.47-1.75-.38-.34-.85-.38-1.41-.38h-1.58v8.2h1.24Z"/>
      <path class="cls-1" d="M844.84,72.36l-.21.3h-12.69l-.77-3.84h-6.79l-.77,3.84h-12.69l-.21-.3,8.33-28.23h17.47l8.33,28.23ZM827.45,53.95c-.43,2.14-.94,4.78-1.49,7.26h3.59c-.51-2.48-1.03-5.13-1.45-7.26h-.64Z"/>
      <path class="cls-1" d="M838.96,44.12h13.03l1.45,4.23c.26.6.98,4.95,1.24,6.54h.26c.26-1.58,1.03-5.94,1.24-6.54l1.49-4.23h12.98l.21.3-9.65,19.22v9.01h-12.77v-9.01l-9.7-19.22.21-.3Z"/>
      <path class="cls-1" d="M894.52,55.91v6.92h-11.96v-6.92h11.96Z"/>
      <path class="cls-3" d="M919.86,44.12v28.53h-12.43v-28.53h12.43Z"/>
      <path class="cls-3" d="M922.15,44.12h13.03l3.08,4.57c.34.56,2.18,4.02,3.67,6.92l.34-.09c-.68-3.33-1.67-7.86-1.67-8.29v-3.12h12.47v28.53h-12.81l-3.2-4.83c-.26-.43-1.54-2.65-2.95-5l-.34.09c.3,1.67.81,5.04.81,5.68v4.06h-12.43v-28.53Z"/>
      <path class="cls-3" d="M979.98,55.31h-6.41v17.34h-12.77v-17.34h-6.36v-11.19h25.54v11.19Z"/>
      <path class="cls-3" d="M1004.52,63.86v8.8h-23.11v-28.53h23.06v8.8h-10.64v2.05h9.23v6.75h-9.23v2.14h10.68Z"/>
      <path class="cls-3" d="M1032.49,57.54v15.12h-8.29l-1.67-2.9h-.26c-1.07,2.39-2.82,3.29-5.77,3.29-6.83,0-10.64-4.74-10.64-14.01,0-11.06,4.95-15.29,17.73-15.29,3.5,0,6.88.26,8.46.51l.09,10.34-.17.13c-1.62-.09-3.76-.13-6.07-.13-2.69,0-4.61.13-5.77.64-1.11.51-1.49,1.58-1.49,3.12v1.2c0,1.45.21,2.52,1.03,2.95.47.26,1.37.38,2.35.38h.21v-5.34h10.25Z"/>
      <path class="cls-3" d="M1063.55,72.36l-.21.3h-13.07l-2.48-6.62h-.73v6.62h-12.43v-28.53h15.21c9.23,0,13.28,3.12,13.28,10.76,0,3.76-1.11,6.58-3.2,8.46l3.63,9.01ZM1047.06,58.69h1.96c1.32,0,1.67-.81,1.67-1.79v-1.41c0-1.2-.51-1.62-1.71-1.62h-1.92v4.83Z"/>
      <path class="cls-3" d="M1098.12,72.36l-.21.3h-12.69l-.77-3.84h-6.79l-.77,3.84h-12.69l-.21-.3,8.33-28.23h17.47l8.33,28.23ZM1080.73,53.95c-.43,2.14-.94,4.78-1.49,7.26h3.59c-.51-2.48-1.03-5.13-1.45-7.26h-.64Z"/>
      <path class="cls-3" d="M1113.52,73l-.43,1.2h.43c2.95,0,4.36,1.24,4.36,3.59,0,3.29-1.92,4.95-8.16,4.95-2.01,0-3.89-.13-4.91-.26v-4.27c.77.04,2.86.13,4.14.13,1.15,0,1.41-.26,1.41-.64,0-.3-.17-.47-.77-.47h-2.73l1.75-4.31c-8.41-.9-11.7-5.55-11.7-14.78,0-10.08,5-14.39,15.97-14.39,3.2,0,6.07.47,7.6.81v10.17l-.17.17c-1.49-.17-3.2-.3-4.7-.3s-3.37.17-4.23.6c-.94.47-1.28,1.49-1.28,2.65v1.24c0,1.28.34,2.26,1.41,2.65.94.38,2.69.47,4.1.47s3.63-.21,4.87-.38l.17.17v10.21c-1.45.3-3.84.73-7.13.81Z"/>
      <path class="cls-3" d="M1155.73,72.36l-.21.3h-12.69l-.77-3.84h-6.79l-.77,3.84h-12.69l-.21-.3,8.33-28.23h17.47l8.33,28.23ZM1134.98,41.99h-6.02l.38-3.72c.38-3.67,1.84-5.6,5.17-5.6,2.18,0,3.25.6,4.14,1.28l1.28.9c.51.38.77.6,1.37.6.47,0,.6-.26.73-1.03l.3-1.75h6.07l-.43,3.72c-.38,3.72-1.84,5.6-5.13,5.6-2.18,0-3.2-.51-4.19-1.28l-1.24-.9c-.47-.3-.77-.6-1.37-.6-.56,0-.68.3-.81,1.07l-.26,1.71ZM1138.35,53.95c-.43,2.14-.94,4.78-1.49,7.26h3.59c-.51-2.48-1.03-5.13-1.45-7.26h-.64Z"/>
      <path class="cls-3" d="M1169.73,43.65c8.8,0,15.25,4.44,15.25,14.82,0,9.52-5.34,14.65-15.25,14.65s-15.21-5.25-15.21-14.65c0-10.38,6.45-14.82,15.21-14.82ZM1169.73,62.28c1.88,0,2.82-.9,2.82-2.35v-3.08c0-1.49-.9-2.35-2.82-2.35s-2.78.9-2.78,2.35v3.08c0,1.45.94,2.35,2.78,2.35Z"/>
      <path class="cls-1" d="M1196.59,44.12h13.2c11.4,0,15.12,4.74,15.12,14.1s-3.29,14.44-15.16,14.44h-13.16v-28.53ZM1210.26,62.49c.64,0,1.32-.04,1.75-.47.34-.34.47-1.03.47-1.79v-3.8c0-.81-.13-1.45-.47-1.75-.38-.34-.85-.38-1.41-.38h-1.58v8.2h1.24Z"/>
      <path class="cls-1" d="M1257.82,72.36l-.21.3h-12.69l-.77-3.84h-6.79l-.77,3.84h-12.69l-.21-.3,8.33-28.23h17.47l8.33,28.23ZM1240.44,53.95c-.43,2.14-.94,4.78-1.49,7.26h3.59c-.51-2.48-1.03-5.13-1.45-7.26h-.64Z"/>
      <path class="cls-1" d="M1251.96,44.12h13.03l1.45,4.23c.26.6.98,4.95,1.24,6.54h.26c.26-1.58,1.03-5.94,1.24-6.54l1.49-4.23h12.98l.21.3-9.65,19.22v9.01h-12.77v-9.01l-9.7-19.22.21-.3Z"/>
      <path class="cls-1" d="M1307.55,55.91v6.92h-11.96v-6.92h11.96Z"/>
      <path class="cls-3" d="M1332.87,44.12v28.53h-12.43v-28.53h12.43Z"/>
      <path class="cls-3" d="M1335.11,44.12h13.03l3.08,4.57c.34.56,2.18,4.02,3.67,6.92l.34-.09c-.68-3.33-1.67-7.86-1.67-8.29v-3.12h12.47v28.53h-12.81l-3.2-4.83c-.26-.43-1.54-2.65-2.95-5l-.34.09c.3,1.67.81,5.04.81,5.68v4.06h-12.43v-28.53Z"/>
      <path class="cls-3" d="M1393.02,55.31h-6.41v17.34h-12.77v-17.34h-6.36v-11.19h25.54v11.19Z"/>
      <path class="cls-3" d="M1417.52,63.86v8.8h-23.11v-28.53h23.06v8.8h-10.64v2.05h9.23v6.75h-9.23v2.14h10.68Z"/>
      <path class="cls-3" d="M1445.5,57.54v15.12h-8.29l-1.67-2.9h-.26c-1.07,2.39-2.82,3.29-5.77,3.29-6.83,0-10.64-4.74-10.64-14.01,0-11.06,4.95-15.29,17.73-15.29,3.5,0,6.88.26,8.46.51l.09,10.34-.17.13c-1.62-.09-3.76-.13-6.07-.13-2.69,0-4.61.13-5.77.64-1.11.51-1.49,1.58-1.49,3.12v1.2c0,1.45.21,2.52,1.03,2.95.47.26,1.37.38,2.35.38h.21v-5.34h10.25Z"/>
      <path class="cls-3" d="M1476.58,72.36l-.21.3h-13.07l-2.48-6.62h-.73v6.62h-12.43v-28.53h15.21c9.23,0,13.28,3.12,13.28,10.76,0,3.76-1.11,6.58-3.2,8.46l3.63,9.01ZM1460.09,58.69h1.96c1.32,0,1.67-.81,1.67-1.79v-1.41c0-1.2-.51-1.62-1.71-1.62h-1.92v4.83Z"/>
      <path class="cls-3" d="M1511.13,72.36l-.21.3h-12.69l-.77-3.84h-6.79l-.77,3.84h-12.69l-.21-.3,8.33-28.23h17.47l8.33,28.23ZM1493.75,53.95c-.43,2.14-.94,4.78-1.49,7.26h3.59c-.51-2.48-1.03-5.13-1.45-7.26h-.64Z"/>
      <path class="cls-3" d="M1526.56,73l-.43,1.2h.43c2.95,0,4.36,1.24,4.36,3.59,0,3.29-1.92,4.95-8.16,4.95-2.01,0-3.89-.13-4.91-.26v-4.27c.77.04,2.86.13,4.14.13,1.15,0,1.41-.26,1.41-.64,0-.3-.17-.47-.77-.47h-2.73l1.75-4.31c-8.41-.9-11.7-5.55-11.7-14.78,0-10.08,5-14.39,15.97-14.39,3.2,0,6.07.47,7.6.81v10.17l-.17.17c-1.49-.17-3.2-.3-4.7-.3s-3.37.17-4.23.6c-.94.47-1.28,1.49-1.28,2.65v1.24c0,1.28.34,2.26,1.41,2.65.94.38,2.69.47,4.1.47s3.63-.21,4.87-.38l.17.17v10.21c-1.45.3-3.84.73-7.13.81Z"/>
      <path class="cls-3" d="M1568.74,72.36l-.21.3h-12.69l-.77-3.84h-6.79l-.77,3.84h-12.69l-.21-.3,8.33-28.23h17.47l8.33,28.23ZM1547.98,41.99h-6.02l.38-3.72c.38-3.67,1.84-5.6,5.17-5.6,2.18,0,3.25.6,4.14,1.28l1.28.9c.51.38.77.6,1.37.6.47,0,.6-.26.73-1.03l.3-1.75h6.07l-.43,3.72c-.38,3.72-1.84,5.6-5.13,5.6-2.18,0-3.2-.51-4.19-1.28l-1.24-.9c-.47-.3-.77-.6-1.37-.6-.56,0-.68.3-.81,1.07l-.26,1.71ZM1551.35,53.95c-.43,2.14-.94,4.78-1.49,7.26h3.59c-.51-2.48-1.03-5.13-1.45-7.26h-.64Z"/>
      <path class="cls-3" d="M1582.74,43.65c8.8,0,15.25,4.44,15.25,14.82,0,9.52-5.34,14.65-15.25,14.65s-15.21-5.25-15.21-14.65c0-10.38,6.45-14.82,15.21-14.82ZM1582.74,62.28c1.88,0,2.82-.9,2.82-2.35v-3.08c0-1.49-.9-2.35-2.82-2.35s-2.78.9-2.78,2.35v3.08c0,1.45.94,2.35,2.78,2.35Z"/>
      <path class="cls-1" d="M1609.58,44.12h13.2c11.4,0,15.12,4.74,15.12,14.1s-3.29,14.44-15.16,14.44h-13.16v-28.53ZM1623.25,62.49c.64,0,1.32-.04,1.75-.47.34-.34.47-1.03.47-1.79v-3.8c0-.81-.13-1.45-.47-1.75-.38-.34-.85-.38-1.41-.38h-1.58v8.2h1.24Z"/>
      <path class="cls-1" d="M1670.83,72.36l-.21.3h-12.69l-.77-3.84h-6.79l-.77,3.84h-12.69l-.21-.3,8.33-28.23h17.47l8.33,28.23ZM1653.44,53.95c-.43,2.14-.94,4.78-1.49,7.26h3.59c-.51-2.48-1.03-5.13-1.45-7.26h-.64Z"/>
      <path class="cls-1" d="M1664.99,44.12h13.03l1.45,4.23c.26.6.98,4.95,1.24,6.54h.26c.26-1.58,1.03-5.94,1.24-6.54l1.49-4.23h12.98l.21.3-9.65,19.22v9.01h-12.77v-9.01l-9.7-19.22.21-.3Z"/>
      <path class="cls-1" d="M1720.57,55.91v6.92h-11.96v-6.92h11.96Z"/>
      <path class="cls-3" d="M1745.88,44.12v28.53h-12.43v-28.53h12.43Z"/>
      <path class="cls-3" d="M1748.13,44.12h13.03l3.08,4.57c.34.56,2.18,4.02,3.67,6.92l.34-.09c-.68-3.33-1.67-7.86-1.67-8.29v-3.12h12.47v28.53h-12.81l-3.2-4.83c-.26-.43-1.54-2.65-2.95-5l-.34.09c.3,1.67.81,5.04.81,5.68v4.06h-12.43v-28.53Z"/>
      <path class="cls-3" d="M1806.03,55.31h-6.41v17.34h-12.77v-17.34h-6.36v-11.19h25.54v11.19Z"/>
      <path class="cls-3" d="M1830.56,63.86v8.8h-23.11v-28.53h23.06v8.8h-10.64v2.05h9.23v6.75h-9.23v2.14h10.68Z"/>
      <path class="cls-3" d="M1858.52,57.54v15.12h-8.29l-1.67-2.9h-.26c-1.07,2.39-2.82,3.29-5.77,3.29-6.83,0-10.64-4.74-10.64-14.01,0-11.06,4.95-15.29,17.73-15.29,3.5,0,6.88.26,8.46.51l.09,10.34-.17.13c-1.62-.09-3.76-.13-6.07-.13-2.69,0-4.61.13-5.77.64-1.11.51-1.49,1.58-1.49,3.12v1.2c0,1.45.21,2.52,1.03,2.95.47.26,1.37.38,2.35.38h.21v-5.34h10.25Z"/>
      <path class="cls-3" d="M1889.55,72.36l-.21.3h-13.07l-2.48-6.62h-.73v6.62h-12.43v-28.53h15.21c9.23,0,13.28,3.12,13.28,10.76,0,3.76-1.11,6.58-3.2,8.46l3.63,9.01ZM1873.07,58.69h1.96c1.32,0,1.67-.81,1.67-1.79v-1.41c0-1.2-.51-1.62-1.71-1.62h-1.92v4.83Z"/>
      <path class="cls-3" d="M1924.13,72.36l-.21.3h-12.69l-.77-3.84h-6.79l-.77,3.84h-12.69l-.21-.3,8.33-28.23h17.47l8.33,28.23ZM1906.75,53.95c-.43,2.14-.94,4.78-1.49,7.26h3.59c-.51-2.48-1.03-5.13-1.45-7.26h-.64Z"/>
      <path class="cls-3" d="M1939.57,73l-.43,1.2h.43c2.95,0,4.36,1.24,4.36,3.59,0,3.29-1.92,4.95-8.16,4.95-2.01,0-3.89-.13-4.91-.26v-4.27c.77.04,2.86.13,4.14.13,1.15,0,1.41-.26,1.41-.64,0-.3-.17-.47-.77-.47h-2.73l1.75-4.31c-8.41-.9-11.7-5.55-11.7-14.78,0-10.08,5-14.39,15.97-14.39,3.2,0,6.07.47,7.6.81v10.17l-.17.17c-1.49-.17-3.2-.3-4.7-.3s-3.37.17-4.23.6c-.94.47-1.28,1.49-1.28,2.65v1.24c0,1.28.34,2.26,1.41,2.65.94.38,2.69.47,4.1.47s3.63-.21,4.87-.38l.17.17v10.21c-1.45.3-3.84.73-7.13.81Z"/>
      <path class="cls-3" d="M1981.77,72.36l-.21.3h-12.69l-.77-3.84h-6.79l-.77,3.84h-12.69l-.21-.3,8.33-28.23h17.47l8.33,28.23ZM1961.01,41.99h-6.02l.38-3.72c.38-3.67,1.84-5.6,5.17-5.6,2.18,0,3.25.6,4.14,1.28l1.28.9c.51.38.77.6,1.37.6.47,0,.6-.26.73-1.03l.3-1.75h6.07l-.43,3.72c-.38,3.72-1.84,5.6-5.13,5.6-2.18,0-3.2-.51-4.19-1.28l-1.24-.9c-.47-.3-.77-.6-1.37-.6-.56,0-.68.3-.81,1.07l-.26,1.71ZM1964.39,53.95c-.43,2.14-.94,4.78-1.49,7.26h3.59c-.51-2.48-1.03-5.13-1.45-7.26h-.64Z"/>
      <path class="cls-3" d="M1995.76,43.65c8.8,0,15.25,4.44,15.25,14.82,0,9.52-5.34,14.65-15.25,14.65s-15.21-5.25-15.21-14.65c0-10.38,6.45-14.82,15.21-14.82ZM1995.76,62.28c1.88,0,2.82-.9,2.82-2.35v-3.08c0-1.49-.9-2.35-2.82-2.35s-2.78.9-2.78,2.35v3.08c0,1.45.94,2.35,2.78,2.35Z"/>
      <path class="cls-1" d="M2022.59,44.12h13.2c11.4,0,15.12,4.74,15.12,14.1s-3.29,14.44-15.16,14.44h-13.16v-28.53ZM2036.26,62.49c.64,0,1.32-.04,1.75-.47.34-.34.47-1.03.47-1.79v-3.8c0-.81-.13-1.45-.47-1.75-.38-.34-.85-.38-1.41-.38h-1.58v8.2h1.24Z"/>
      <path class="cls-1" d="M2083.84,72.36l-.21.3h-12.69l-.77-3.84h-6.79l-.77,3.84h-12.69l-.21-.3,8.33-28.23h17.47l8.33,28.23ZM2066.46,53.95c-.43,2.14-.94,4.78-1.49,7.26h3.59c-.51-2.48-1.03-5.13-1.45-7.26h-.64Z"/>
      <path class="cls-1" d="M2078,44.12h13.03l1.45,4.23c.26.6.98,4.95,1.24,6.54h.26c.26-1.58,1.03-5.94,1.24-6.54l1.49-4.23h12.98l.21.3-9.65,19.22v9.01h-12.77v-9.01l-9.7-19.22.21-.3Z"/>
    </g>
  </g>
</svg>